<svg width="60" height="60" viewBox="0 0 60 60" fill="none" xmlns="http://www.w3.org/2000/svg">
<path fill-rule="evenodd" clip-rule="evenodd" d="M27.6591 0.111265C25.8581 0.234849 23.4787 0.672259 21.6085 1.22353C11.034 4.34112 2.80917 13.4455 0.62352 24.453C-0.971046 32.4835 0.521273 40.7247 4.77357 47.3721C7.7643 52.0472 11.5667 55.6121 16.1229 58.013C17.78 58.886 20.1198 59.86 20.8461 59.9789C21.5254 60.0903 22.1233 59.7551 22.4036 59.1057C22.612 58.6232 22.6218 58.3848 22.5463 55.6704L22.4651 52.7536L21.4564 52.9136C20.3236 53.0933 18.4507 53.0288 16.9335 52.7578C15.7047 52.5384 14.4554 51.9024 13.6687 51.0958C13.0465 50.4577 12.8859 50.1807 12.0708 48.3381C11.3344 46.6733 10.494 45.5684 9.35852 44.7719C8.57583 44.2229 7.93327 43.5041 7.98404 43.2342C8.05158 42.8749 8.55027 42.7154 9.4046 42.7798C11.0543 42.904 12.7815 44.138 14.0119 46.0716C14.8545 47.3956 15.6857 48.2184 16.7024 48.7351C17.4342 49.1071 17.635 49.1534 18.6891 49.1937C19.9007 49.2399 21.1141 49.0526 22.0991 48.6674C22.5856 48.477 22.6014 48.4532 22.78 47.6434C23.0071 46.6129 23.4361 45.6707 24.0259 44.9064L24.479 44.3192L23.5187 44.1809C20.4264 43.7353 18.2244 42.9623 16.1707 41.6016C13.4826 39.8203 11.8867 37.0473 11.119 32.8241C10.8801 31.5097 10.8426 28.1514 11.053 26.9157C11.3938 24.914 12.1997 23.0785 13.4012 21.5679L13.926 20.9081L13.6985 20.1595C13.0855 18.142 13.2019 15.7025 14.0269 13.2775C14.2341 12.6685 14.2848 12.6439 15.23 12.6938C16.6113 12.7667 19.5772 13.9862 21.5945 15.3107L22.4346 15.8622L23.0828 15.7322C23.4393 15.6607 24.1112 15.518 24.576 15.4152C27.7532 14.712 32.2554 14.712 35.4325 15.4152C35.8973 15.518 36.5677 15.6588 36.9224 15.728L37.5673 15.8537L38.6812 15.1599C41.3357 13.5067 44.3611 12.3969 45.4216 12.6875C45.7229 12.7701 45.8076 12.893 46.0392 13.5841C46.5436 15.0905 46.685 16.1069 46.6258 17.8031C46.5859 18.9455 46.5046 19.5817 46.3268 20.1404L46.0826 20.9081L46.5954 21.5529C47.6376 22.8633 48.4172 24.4837 48.848 26.2349C49.1096 27.2987 49.1385 31.2409 48.8956 32.764C48.5166 35.1423 47.5543 37.6383 46.4342 39.1495C44.4971 41.7626 40.9884 43.5454 36.5475 44.1727L35.5276 44.3168L35.9816 44.9052C36.5406 45.6293 36.9775 46.5574 37.2303 47.5576C37.3901 48.1897 37.4299 49.204 37.4673 53.6016C37.5172 59.4819 37.5158 59.472 38.301 59.8535C38.8429 60.1169 39.282 60.0362 40.9942 59.3588C49.6416 55.9379 56.4734 48.1608 58.9664 38.9001C60.6235 32.7452 60.273 25.5983 58.0234 19.6714C56.0166 14.3837 52.4539 9.55618 48.0807 6.19874C43.3385 2.55798 37.9379 0.503637 32.0582 0.103698C30.0045 -0.0359799 29.8011 -0.0356196 27.6591 0.111265Z" fill="white"/>
</svg>
